<?xml version="1.0" encoding="UTF-8" standalone="no"?>
<!-- Created with Inkscape (http://www.inkscape.org/) -->

<svg
   version="1.1"
   id="svg2"
   xml:space="preserve"
   width="816"
   height="222.22267"
   viewBox="0 0 816 222.22267"
   sodipodi:docname="roborave_logo_white.svg"
   inkscape:version="1.1 (c68e22c387, 2021-05-23)"
   xmlns:inkscape="http://www.inkscape.org/namespaces/inkscape"
   xmlns:sodipodi="http://sodipodi.sourceforge.net/DTD/sodipodi-0.dtd"
   xmlns="http://www.w3.org/2000/svg"
   xmlns:svg="http://www.w3.org/2000/svg"><defs
     id="defs6"><linearGradient
       x1="0"
       y1="0"
       x2="1"
       y2="0"
       gradientUnits="userSpaceOnUse"
       gradientTransform="matrix(0.2692965,66.889656,66.889656,-0.2692965,156.62038,74.176941)"
       spreadMethod="pad"
       id="linearGradient32"><stop
         style="stop-opacity:1;stop-color:#58595b"
         offset="0"
         id="stop22" /><stop
         style="stop-opacity:1;stop-color:#231f20"
         offset="0.45608889"
         id="stop24" /><stop
         style="stop-opacity:1;stop-color:#231f20"
         offset="0.465498"
         id="stop26" /><stop
         style="stop-opacity:1;stop-color:#231f20"
         offset="0.75155504"
         id="stop28" /><stop
         style="stop-opacity:1;stop-color:#58595b"
         offset="1"
         id="stop30" /></linearGradient><clipPath
       clipPathUnits="userSpaceOnUse"
       id="clipPath42"><path
         d="M 0,166.667 H 612 V 0 H 0 Z"
         id="path40" /></clipPath><linearGradient
       x1="0"
       y1="0"
       x2="1"
       y2="0"
       gradientUnits="userSpaceOnUse"
       gradientTransform="matrix(374.34253,0,0,-374.34253,282.151,111.75681)"
       spreadMethod="pad"
       id="linearGradient74"><stop
         style="stop-opacity:1;stop-color:#231f20"
         offset="0"
         id="stop60" /><stop
         style="stop-opacity:1;stop-color:#231f20"
         offset="0.0106228"
         id="stop62" /><stop
         style="stop-opacity:1;stop-color:#d41f2b"
         offset="0.10201293"
         id="stop64" /><stop
         style="stop-opacity:1;stop-color:#d41f2b"
         offset="0.465498"
         id="stop66" /><stop
         style="stop-opacity:1;stop-color:#d41f2b"
         offset="0.77007817"
         id="stop68" /><stop
         style="stop-opacity:1;stop-color:#231f20"
         offset="0.846658"
         id="stop70" /><stop
         style="stop-opacity:1;stop-color:#231f20"
         offset="1"
         id="stop72" /></linearGradient><clipPath
       clipPathUnits="userSpaceOnUse"
       id="clipPath84"><path
         d="M 0,166.667 H 612 V 0 H 0 Z"
         id="path82" /></clipPath></defs><sodipodi:namedview
     id="namedview4"
     pagecolor="#ffffff"
     bordercolor="#666666"
     borderopacity="1.0"
     inkscape:pageshadow="2"
     inkscape:pageopacity="0.0"
     inkscape:pagecheckerboard="0"
     showgrid="false"
     inkscape:zoom="0.54722785"
     inkscape:cx="1015.1165"
     inkscape:cy="-212.89121"
     inkscape:window-width="1920"
     inkscape:window-height="996"
     inkscape:window-x="0"
     inkscape:window-y="0"
     inkscape:window-maximized="1"
     inkscape:current-layer="g80" /><g
     id="g8"
     inkscape:groupmode="layer"
     inkscape:label="roborave_logo"
     transform="matrix(1.3333333,0,0,-1.3333333,0,222.22267)"><g
       id="g10"><g
         id="g12"><g
           id="g18"><g
             id="g20"><path
               d="m 163.323,143.852 0.035,-41.571 c -0.006,-3.687 0.339,-6.816 1.073,-9.397 v 0 c 0.732,-2.563 1.939,-4.643 3.648,-6.221 v 0 c 1.694,-1.576 3.989,-2.722 6.89,-3.453 v 0 c 2.885,-0.712 6.487,-1.071 10.789,-1.052 v 0 l 16.353,0.019 c 4.332,-0.013 7.945,0.351 10.844,1.07 v 0 c 2.898,0.737 5.206,1.886 6.912,3.467 v 0 c 1.692,1.578 2.908,3.66 3.638,6.227 v 0 c 0.73,2.581 1.069,5.713 1.05,9.395 v 0 l -0.006,6.286 c 0.013,3.715 -0.332,6.856 -1.069,9.436 v 0 c -0.735,2.582 -1.957,4.674 -3.649,6.254 v 0 c -1.709,1.59 -4.016,2.736 -6.92,3.462 v 0 c -2.895,0.714 -6.512,1.07 -10.845,1.053 v 0 l -25.905,-0.024 -0.015,15.059 z m 17.876,-50.435 c -1.303,0.286 -2.324,0.787 -3.057,1.491 v 0 c -0.718,0.7 -1.237,1.677 -1.537,2.922 v 0 c -0.287,1.236 -0.433,2.812 -0.42,4.721 v 0 l -0.013,15.234 25.475,0.024 c 2.008,0.017 3.673,-0.112 4.993,-0.368 v 0 c 1.308,-0.256 2.337,-0.729 3.087,-1.403 v 0 c 0.732,-0.689 1.263,-1.664 1.565,-2.941 v 0 c 0.301,-1.263 0.447,-2.91 0.436,-4.919 v 0 l 0.004,-5.508 c 0.016,-1.923 -0.127,-3.513 -0.426,-4.776 v 0 c -0.298,-1.25 -0.829,-2.241 -1.559,-2.957 v 0 c -0.745,-0.705 -1.779,-1.207 -3.086,-1.495 v 0 c -1.317,-0.288 -2.983,-0.432 -4.99,-0.418 v 0 L 186.18,93.008 c -0.114,-10e-4 -0.228,-0.002 -0.34,-0.002 v 0 c -1.858,0 -3.41,0.141 -4.641,0.411 m -113.89,47.334 -45.962,-0.043 0.056,-58.704 12.995,0.013 -0.019,21.35 34.363,-21.318 22.551,0.024 -34.447,19.85 10.33,0.009 c 4,-0.011 7.471,0.252 10.396,0.771 v 0 c 2.939,0.534 5.35,1.44 7.272,2.719 v 0 c 1.907,1.261 3.323,3.015 4.257,5.253 v 0 c 0.929,2.225 1.385,5.02 1.381,8.407 v 0 l -0.001,4.044 c 0.01,3.518 -0.44,6.413 -1.315,8.707 v 0 c -0.878,2.308 -2.258,4.102 -4.107,5.406 v 0 c -1.866,1.302 -4.263,2.218 -7.19,2.746 v 0 c -2.843,0.513 -6.223,0.767 -10.153,0.767 v 0 c -0.135,0 -0.27,0 -0.407,-0.001 m -32.953,-11.048 32.102,0.03 c 2.14,0.015 3.93,-0.066 5.339,-0.254 v 0 c 1.42,-0.186 2.538,-0.526 3.357,-1.045 v 0 c 0.818,-0.5 1.407,-1.246 1.75,-2.208 v 0 c 0.333,-0.974 0.505,-2.236 0.492,-3.798 v 0 l 0.004,-3.185 c 0.016,-1.58 -0.155,-2.856 -0.512,-3.844 v 0 c -0.359,-0.978 -0.946,-1.74 -1.776,-2.243 v 0 c -0.834,-0.516 -1.953,-0.874 -3.373,-1.059 v 0 c -1.404,-0.192 -3.153,-0.28 -5.261,-0.265 v 0 L 34.371,111.8 Z m 235.429,-0.815 -15.579,-0.014 c -4.304,0.012 -7.905,-0.35 -10.787,-1.071 v 0 c -2.896,-0.734 -5.192,-1.884 -6.881,-3.476 v 0 c -1.706,-1.581 -2.91,-3.676 -3.639,-6.26 v 0 c -0.73,-2.583 -1.069,-5.725 -1.055,-9.439 v 0 l 0.007,-6.284 c -0.007,-3.686 0.338,-6.814 1.071,-9.393 v 0 c 0.735,-2.567 1.943,-4.646 3.65,-6.226 v 0 c 1.696,-1.576 3.99,-2.722 6.89,-3.451 v 0 c 2.882,-0.713 6.485,-1.07 10.785,-1.052 v 0 l 15.581,0.015 c 4.332,-0.01 7.948,0.353 10.844,1.071 v 0 c 2.897,0.739 5.207,1.887 6.911,3.467 v 0 c 1.69,1.581 2.906,3.662 3.639,6.229 v 0 c 0.73,2.583 1.07,5.708 1.051,9.395 v 0 l -0.004,6.199 c 0.009,3.728 -0.338,6.899 -1.071,9.496 v 0 c -0.737,2.594 -1.956,4.69 -3.65,6.281 v 0 c -1.71,1.588 -4.017,2.734 -6.918,3.462 v 0 c -2.817,0.697 -6.316,1.052 -10.488,1.052 v 0 c -0.119,0 -0.237,0 -0.357,-0.001 m -1.712,-11.017 c 2.312,0.016 4.219,-0.111 5.698,-0.381 v 0 c 1.49,-0.272 2.656,-0.76 3.472,-1.461 v 0 c 0.832,-0.703 1.408,-1.676 1.739,-2.938 v 0 c 0.315,-1.262 0.476,-2.882 0.462,-4.85 v 0 l 0.005,-5.507 c 0.015,-1.923 -0.139,-3.517 -0.452,-4.777 v 0 c -0.329,-1.25 -0.905,-2.239 -1.736,-2.958 v 0 c -0.817,-0.704 -1.977,-1.205 -3.471,-1.496 v 0 c -1.475,-0.287 -3.384,-0.431 -5.694,-0.42 v 0 l -12.134,-0.012 c -2.268,-0.016 -4.135,0.125 -5.612,0.412 v 0 c -1.478,0.287 -2.627,0.788 -3.456,1.488 v 0 c -0.817,0.715 -1.409,1.705 -1.739,2.954 v 0 c -0.332,1.262 -0.493,2.854 -0.48,4.777 v 0 l -0.006,5.508 c -0.013,1.964 0.144,3.585 0.473,4.848 v 0 c 0.327,1.264 0.913,2.238 1.73,2.943 v 0 c 0.832,0.704 1.98,1.192 3.455,1.467 v 0 c 1.48,0.273 3.344,0.404 5.612,0.391 v 0 z m -134.671,10.893 -15.577,-0.016 c -4.304,0.013 -7.904,-0.353 -10.787,-1.073 v 0 c -2.898,-0.732 -5.191,-1.882 -6.881,-3.478 v 0 c -1.707,-1.577 -2.91,-3.673 -3.639,-6.255 v 0 c -0.729,-2.583 -1.069,-5.726 -1.055,-9.438 v 0 l 0.008,-6.287 c -0.012,-3.687 0.337,-6.813 1.067,-9.393 v 0 c 0.738,-2.567 1.942,-4.646 3.652,-6.225 v 0 c 1.694,-1.575 3.991,-2.724 6.888,-3.452 v 0 c 2.884,-0.712 6.485,-1.071 10.789,-1.053 v 0 l 15.58,0.016 c 4.333,-0.012 7.945,0.353 10.841,1.072 v 0 c 2.901,0.735 5.208,1.887 6.912,3.466 v 0 c 1.693,1.58 2.909,3.661 3.639,6.229 v 0 c 0.729,2.582 1.072,5.712 1.052,9.396 v 0 l -0.005,6.2 c 0.01,3.728 -0.335,6.898 -1.069,9.493 v 0 c -0.735,2.594 -1.957,4.688 -3.653,6.279 v 0 c -1.707,1.593 -4.017,2.738 -6.915,3.467 v 0 c -2.833,0.696 -6.35,1.052 -10.55,1.052 v 0 c -0.099,0 -0.197,0 -0.297,0 m -1.71,-11.022 c 2.308,0.017 4.217,-0.109 5.697,-0.379 v 0 c 1.49,-0.272 2.653,-0.76 3.471,-1.462 v 0 c 0.831,-0.702 1.408,-1.675 1.736,-2.939 v 0 c 0.318,-1.263 0.478,-2.882 0.468,-4.849 v 0 l 0.003,-5.508 c 0.014,-1.922 -0.14,-3.513 -0.453,-4.775 v 0 c -0.331,-1.25 -0.904,-2.241 -1.734,-2.959 v 0 c -0.816,-0.703 -1.979,-1.205 -3.472,-1.495 v 0 c -1.477,-0.288 -3.384,-0.432 -5.694,-0.42 v 0 L 119.58,92.944 c -2.269,-0.016 -4.132,0.126 -5.61,0.41 v 0 c -1.478,0.287 -2.626,0.787 -3.457,1.488 v 0 c -0.821,0.719 -1.409,1.706 -1.741,2.954 v 0 c -0.33,1.263 -0.492,2.856 -0.478,4.779 v 0 l -0.005,5.507 c -0.015,1.966 0.139,3.588 0.466,4.847 v 0 c 0.333,1.264 0.918,2.241 1.737,2.945 v 0 c 0.832,0.704 1.978,1.194 3.456,1.465 v 0 c 1.477,0.275 3.34,0.403 5.608,0.395 v 0 z"
               style="fill:url(#linearGradient32);stroke:none"
               id="path34" /></g></g></g></g><g
       id="g36"><g
         id="g38"
         clip-path="url(#clipPath42)"><g
           id="g44"
           transform="translate(279.4492,102.7345)"><path
             d="m 0,0 c 0.015,-1.924 -0.139,-3.518 -0.452,-4.777 -0.329,-1.25 -0.905,-2.24 -1.736,-2.959 -0.817,-0.703 -1.977,-1.204 -3.471,-1.496 -1.476,-0.287 -3.384,-0.431 -5.695,-0.42 l -12.133,-0.012 c -2.268,-0.016 -4.135,0.125 -5.612,0.412 -1.478,0.287 -2.627,0.788 -3.456,1.488 -0.818,0.716 -1.409,1.706 -1.739,2.954 -0.332,1.263 -0.493,2.855 -0.48,4.777 l -0.006,5.508 c -0.013,1.965 0.144,3.586 0.472,4.848 0.328,1.264 0.914,2.239 1.731,2.943 0.832,0.704 1.979,1.192 3.454,1.468 1.48,0.272 3.345,0.403 5.613,0.39 l 12.134,0.012 c 2.312,0.017 4.219,-0.111 5.698,-0.381 1.491,-0.272 2.656,-0.759 3.472,-1.461 0.831,-0.703 1.407,-1.675 1.739,-2.938 0.315,-1.261 0.476,-2.882 0.462,-4.849 z m -9.621,-20.498 c 4.332,-0.01 7.948,0.354 10.844,1.071 2.897,0.739 5.207,1.887 6.911,3.468 1.69,1.58 2.907,3.661 3.639,6.229 0.729,2.583 1.07,5.708 1.051,9.395 L 12.82,5.864 c 0.009,3.728 -0.338,6.898 -1.071,9.495 -0.736,2.595 -1.957,4.69 -3.65,6.281 -1.71,1.589 -4.018,2.734 -6.918,3.463 -2.897,0.716 -6.514,1.071 -10.845,1.05 l -15.579,-0.014 c -4.304,0.012 -7.905,-0.349 -10.787,-1.071 -2.896,-0.733 -5.192,-1.883 -6.881,-3.476 -1.707,-1.581 -2.91,-3.675 -3.639,-6.259 -0.73,-2.583 -1.069,-5.725 -1.054,-9.439 l 0.006,-6.284 c -0.007,-3.687 0.338,-6.815 1.071,-9.394 0.735,-2.567 1.943,-4.646 3.65,-6.226 1.695,-1.575 3.989,-2.721 6.889,-3.45 2.883,-0.714 6.486,-1.071 10.786,-1.052 z m -58.096,20.434 c 0.016,-1.924 -0.127,-3.514 -0.427,-4.776 -0.298,-1.25 -0.829,-2.242 -1.558,-2.957 -0.746,-0.705 -1.779,-1.208 -3.087,-1.496 -1.316,-0.288 -2.982,-0.432 -4.989,-0.418 l -15.491,-0.016 c -2.01,-0.018 -3.675,0.123 -4.981,0.41 -1.303,0.285 -2.324,0.787 -3.057,1.49 -0.718,0.701 -1.237,1.678 -1.537,2.923 -0.287,1.235 -0.433,2.811 -0.421,4.721 l -0.012,15.233 25.474,0.024 c 2.009,0.018 3.673,-0.112 4.993,-0.367 1.308,-0.257 2.338,-0.73 3.088,-1.403 0.732,-0.689 1.263,-1.664 1.565,-2.942 0.301,-1.262 0.448,-2.91 0.435,-4.919 z m -9.621,-20.494 c 4.332,-0.013 7.945,0.352 10.844,1.071 2.898,0.736 5.205,1.885 6.912,3.467 1.692,1.578 2.908,3.66 3.638,6.227 0.73,2.581 1.069,5.712 1.05,9.395 L -54.9,5.887 c 0.012,3.716 -0.332,6.857 -1.069,9.437 -0.735,2.581 -1.957,4.674 -3.649,6.253 -1.709,1.59 -4.017,2.736 -6.92,3.463 -2.896,0.713 -6.513,1.07 -10.845,1.052 l -25.906,-0.024 -0.014,15.06 -12.823,-0.011 0.035,-41.571 c -0.007,-3.687 0.339,-6.816 1.073,-9.397 0.732,-2.563 1.939,-4.643 3.648,-6.221 1.694,-1.575 3.989,-2.721 6.89,-3.452 2.884,-0.713 6.487,-1.071 10.789,-1.052 z m -59.044,20.429 c 0.014,-1.923 -0.14,-3.514 -0.453,-4.775 -0.331,-1.25 -0.904,-2.242 -1.735,-2.96 -0.815,-0.703 -1.978,-1.205 -3.471,-1.495 -1.478,-0.287 -3.384,-0.432 -5.694,-0.419 l -12.134,-0.013 c -2.269,-0.016 -4.133,0.126 -5.61,0.411 -1.478,0.286 -2.626,0.787 -3.458,1.487 -0.82,0.72 -1.408,1.707 -1.74,2.955 -0.33,1.263 -0.492,2.856 -0.478,4.778 l -0.006,5.507 c -0.014,1.967 0.14,3.589 0.467,4.848 0.333,1.263 0.918,2.241 1.736,2.944 0.833,0.704 1.979,1.194 3.457,1.465 1.477,0.275 3.34,0.403 5.608,0.395 l 12.137,0.008 c 2.307,0.017 4.216,-0.109 5.695,-0.379 1.491,-0.272 2.654,-0.759 3.472,-1.461 0.832,-0.702 1.408,-1.676 1.736,-2.94 0.318,-1.262 0.478,-2.881 0.468,-4.849 z m -9.62,-20.496 c 4.333,-0.012 7.944,0.354 10.841,1.072 2.901,0.735 5.208,1.887 6.911,3.467 1.693,1.579 2.909,3.66 3.64,6.229 0.729,2.582 1.071,5.711 1.052,9.396 l -0.005,6.2 c 0.01,3.728 -0.336,6.897 -1.069,9.492 -0.736,2.595 -1.958,4.688 -3.653,6.28 -1.708,1.592 -4.017,2.737 -6.915,3.466 -2.9,0.713 -6.515,1.069 -10.847,1.052 l -15.577,-0.016 c -4.304,0.013 -7.905,-0.352 -10.787,-1.073 -2.899,-0.731 -5.192,-1.881 -6.881,-3.477 -1.707,-1.577 -2.911,-3.673 -3.64,-6.255 -0.728,-2.583 -1.068,-5.727 -1.054,-9.439 l 0.007,-6.286 c -0.011,-3.688 0.338,-6.813 1.068,-9.394 0.737,-2.567 1.942,-4.646 3.652,-6.225 1.694,-1.574 3.991,-2.724 6.888,-3.451 2.884,-0.713 6.485,-1.071 10.788,-1.054 z m -56.047,37.133 c 0.016,-1.579 -0.155,-2.855 -0.513,-3.844 -0.358,-0.978 -0.945,-1.739 -1.775,-2.242 -0.834,-0.516 -1.953,-0.875 -3.373,-1.06 -1.404,-0.192 -3.153,-0.28 -5.262,-0.264 l -32.106,-0.033 -0.016,17.904 32.103,0.03 c 2.139,0.015 3.929,-0.067 5.338,-0.254 1.421,-0.186 2.539,-0.526 3.358,-1.046 0.817,-0.499 1.407,-1.245 1.75,-2.208 0.333,-0.973 0.504,-2.236 0.492,-3.798 z m 13.893,-37.17 -34.447,19.851 10.33,0.009 c 4,-0.011 7.471,0.252 10.396,0.77 2.94,0.535 5.35,1.44 7.272,2.719 1.907,1.262 3.323,3.015 4.257,5.253 0.928,2.225 1.385,5.02 1.381,8.407 l -10e-4,4.045 c 0.009,3.517 -0.44,6.412 -1.315,8.707 -0.878,2.307 -2.259,4.102 -4.108,5.406 -1.865,1.302 -4.262,2.218 -7.19,2.746 -2.94,0.531 -6.455,0.784 -10.559,0.766 l -45.962,-0.043 0.056,-58.704 12.995,0.012 -0.019,21.35 34.363,-21.318 z"
             style="fill:none;stroke:#6d6f71;stroke-width:2;stroke-linecap:butt;stroke-linejoin:miter;stroke-miterlimit:10;stroke-dasharray:none;stroke-opacity:1"
             id="path46" /></g></g></g><g
       id="g48"><g
         id="g50"><g
           id="g56"><g
             id="g58"><path
               d="m 411.233,141.617 c -1.219,-0.488 -2.265,-1.178 -3.126,-2.041 v 0 c -0.857,-0.861 -1.621,-1.851 -2.295,-2.987 v 0 l -34.027,-54.257 15.057,0.012 c 10.046,16.293 18.631,30.451 28.62,46.768 v 0 c 11.374,-18.501 17.475,-28.663 28.875,-46.712 v 0 l 15.154,0.013 -33.966,54.196 c -0.675,1.133 -1.437,2.121 -2.295,2.981 v 0 c -0.864,0.861 -1.896,1.551 -3.102,2.032 v 0 c -1.207,0.49 -2.686,0.734 -4.417,0.745 v 0 c -1.77,-0.018 -3.258,-0.262 -4.478,-0.75 m 136.986,-0.419 c -4.306,0.011 -7.906,-0.352 -10.801,-1.071 v 0 c -2.881,-0.719 -5.18,-1.886 -6.867,-3.463 v 0 c -1.707,-1.579 -2.913,-3.657 -3.642,-6.228 v 0 c -0.729,-2.57 -1.066,-5.709 -1.055,-9.399 v 0 l 0.02,-18.419 c -0.007,-3.686 0.336,-6.816 1.067,-9.394 v 0 c 0.739,-2.567 1.947,-4.646 3.652,-6.22 v 0 c 1.695,-1.578 3.996,-2.725 6.878,-3.454 v 0 c 2.894,-0.716 6.5,-1.072 10.804,-1.052 v 0 l 40.966,0.037 -0.006,11.106 -40.973,-0.039 c -1.906,-0.015 -3.471,0.126 -4.694,0.397 v 0 c -1.23,0.286 -2.192,0.76 -2.862,1.419 v 0 c -0.695,0.674 -1.171,1.59 -1.442,2.751 v 0 c -0.273,1.164 -0.399,2.627 -0.394,4.373 v 0 4.136 l 50.003,0.048 -0.009,10.413 -50.002,-0.047 -0.01,3.958 c -0.013,1.695 0.128,3.128 0.402,4.289 v 0 c 0.271,1.148 0.757,2.082 1.444,2.785 v 0 c 0.69,0.706 1.651,1.207 2.866,1.509 v 0 c 1.222,0.316 2.785,0.478 4.664,0.464 v 0 l 14.457,0.014 -0.004,11.103 z M 511.142,141.164 483.468,95.78 455.63,141.113 439.787,141.098 473.58,86.733 c 0.703,-1.175 1.466,-2.18 2.31,-3.01 v 0 c 0.835,-0.833 1.837,-1.476 3.017,-1.907 v 0 c 1.174,-0.444 2.611,-0.672 4.318,-0.669 v 0 c 1.681,10e-4 3.097,0.23 4.272,0.677 v 0 c 1.178,0.432 2.2,1.08 3.043,1.911 v 0 c 0.844,0.833 1.615,1.839 2.322,3.014 v 0 l 33.861,54.429 z m -165.299,-0.155 -45.963,-0.042 0.053,-58.702 13,0.011 -0.023,21.349 34.36,-21.316 22.554,0.021 -34.447,19.854 10.326,0.009 c 4.003,-0.01 7.473,0.25 10.402,0.768 v 0 c 2.939,0.534 5.348,1.443 7.265,2.718 v 0 c 1.912,1.266 3.333,3.017 4.264,5.257 v 0 c 0.926,2.223 1.382,5.021 1.377,8.407 v 0 l -0.003,4.044 c 0.014,3.514 -0.435,6.412 -1.313,8.706 v 0 c -0.871,2.308 -2.256,4.103 -4.109,5.405 v 0 c -1.863,1.303 -4.263,2.219 -7.186,2.747 v 0 c -2.848,0.51 -6.225,0.765 -10.153,0.765 v 0 c -0.134,0 -0.269,0 -0.404,-0.001 m -32.956,-11.049 32.102,0.034 c 2.135,0.015 3.932,-0.068 5.338,-0.254 v 0 c 1.417,-0.187 2.542,-0.529 3.356,-1.045 v 0 c 0.819,-0.501 1.407,-1.247 1.749,-2.208 v 0 c 0.333,-0.975 0.509,-2.238 0.497,-3.802 v 0 -3.183 c 0.016,-1.579 -0.155,-2.855 -0.516,-3.845 v 0 c -0.353,-0.976 -0.939,-1.736 -1.772,-2.24 v 0 c -0.834,-0.516 -1.948,-0.877 -3.372,-1.063 v 0 c -1.401,-0.191 -3.152,-0.28 -5.262,-0.265 v 0 l -32.104,-0.03 z m 102.608,-21.822 c -4.246,-0.004 -7.682,-3.447 -7.679,-7.692 v 0 c 0.005,-4.246 3.449,-7.685 7.696,-7.683 v 0 c 4.243,0.004 7.683,3.452 7.673,7.696 v 0 c 0,4.243 -3.439,7.679 -7.683,7.679 v 0 c -0.003,0 -0.005,0 -0.007,0"
               style="fill:url(#linearGradient74);stroke:none"
               id="path76" /></g></g></g></g><g
       id="g78"><g
         id="g80"
         clip-path="url(#clipPath84)"><g
           id="g86"
           transform="translate(589.2412,82.5353)"><path
             d="m 0,0 -0.006,11.105 -40.973,-0.038 c -1.907,-0.016 -3.471,0.125 -4.694,0.396 -1.23,0.287 -2.192,0.761 -2.862,1.419 -0.695,0.675 -1.171,1.591 -1.443,2.752 -0.272,1.164 -0.398,2.626 -0.393,4.373 v 4.136 l 50.003,0.047 -0.01,10.414 -50.002,-0.047 -0.009,3.958 c -0.013,1.694 0.128,3.128 0.402,4.288 0.27,1.148 0.757,2.083 1.443,2.786 0.69,0.705 1.651,1.206 2.867,1.509 1.222,0.316 2.785,0.478 4.663,0.464 l 14.458,0.014 -0.005,11.102 -14.461,-0.015 c -4.306,0.01 -7.906,-0.352 -10.801,-1.071 -2.881,-0.719 -5.18,-1.886 -6.867,-3.464 -1.707,-1.578 -2.914,-3.657 -3.643,-6.227 -0.728,-2.571 -1.065,-5.709 -1.055,-9.399 l 0.021,-18.419 c -0.007,-3.686 0.336,-6.816 1.067,-9.395 0.738,-2.566 1.946,-4.645 3.652,-6.219 1.695,-1.578 3.996,-2.725 6.877,-3.455 2.894,-0.715 6.5,-1.072 10.804,-1.052 z M -62.518,58.644 -96.379,4.214 c -0.707,-1.176 -1.478,-2.181 -2.322,-3.014 -0.843,-0.832 -1.865,-1.48 -3.043,-1.911 -1.175,-0.447 -2.591,-0.676 -4.272,-0.677 -1.708,-0.004 -3.144,0.224 -4.318,0.669 -1.18,0.43 -2.182,1.073 -3.017,1.906 -0.844,0.831 -1.607,1.835 -2.31,3.01 l -33.793,54.366 15.844,0.015 27.838,-45.333 27.672,45.383 z m -82.386,-58.78 15.153,0.014 -33.966,54.196 c -0.674,1.133 -1.436,2.12 -2.294,2.981 -0.864,0.861 -1.896,1.55 -3.102,2.032 -1.207,0.489 -2.687,0.734 -4.417,0.744 -1.77,-0.017 -3.258,-0.262 -4.478,-0.749 -1.22,-0.489 -2.265,-1.179 -3.127,-2.042 -0.856,-0.86 -1.62,-1.851 -2.295,-2.986 l -34.027,-54.258 15.059,0.013 c 10.045,16.293 18.63,30.451 28.619,46.768 11.374,-18.501 17.474,-28.663 28.875,-46.713 m -88.408,37.103 c 0.016,-1.58 -0.156,-2.855 -0.516,-3.845 -0.354,-0.977 -0.94,-1.736 -1.773,-2.24 -0.833,-0.516 -1.947,-0.877 -3.371,-1.063 -1.401,-0.192 -3.152,-0.28 -5.262,-0.265 l -32.104,-0.031 -0.016,17.902 32.102,0.033 c 2.135,0.016 3.932,-0.068 5.338,-0.253 1.417,-0.187 2.542,-0.529 3.355,-1.046 0.82,-0.5 1.408,-1.246 1.75,-2.208 0.332,-0.974 0.509,-2.237 0.497,-3.801 z m 13.895,-37.173 -34.447,19.855 10.326,0.009 c 4.003,-0.01 7.473,0.249 10.401,0.767 2.94,0.534 5.349,1.443 7.266,2.719 1.912,1.266 3.333,3.017 4.264,5.256 0.925,2.223 1.382,5.021 1.377,8.408 l -0.003,4.044 c 0.013,3.514 -0.435,6.411 -1.313,8.706 -0.871,2.308 -2.257,4.103 -4.109,5.405 -1.863,1.303 -4.263,2.219 -7.186,2.747 -2.946,0.527 -6.456,0.782 -10.557,0.764 l -45.963,-0.042 0.053,-58.702 12.999,0.011 -0.022,21.348 34.36,-21.316 z m 45.671,25.809 c 4.247,0.003 7.689,-3.434 7.689,-7.679 0.011,-4.245 -3.428,-7.693 -7.672,-7.696 -4.248,-0.002 -7.692,3.437 -7.696,7.683 -0.003,4.244 3.433,7.688 7.679,7.692"
             style="fill:none;stroke:#939598;stroke-width:2;stroke-linecap:butt;stroke-linejoin:miter;stroke-miterlimit:10;stroke-dasharray:none;stroke-opacity:1"
             id="path88" /></g><path
           d="m 218.555,53.528 h -2.988 v 23.15 h 2.988 z"
           style="fill:#ffffff;fill-opacity:1;fill-rule:nonzero;stroke:none"
           id="path90" /><g
           id="g92"
           transform="translate(224.0151,65.652)"
           style="fill:#ffffff"><path
             d="M 0,0 C 0,1.718 -0.034,3.126 -0.137,4.5 H 2.542 L 2.713,1.752 h 0.069 c 0.824,1.58 2.748,3.125 5.496,3.125 2.301,0 5.873,-1.374 5.873,-7.075 v -9.927 h -3.023 v 9.583 c 0,2.68 -0.995,4.912 -3.846,4.912 C 5.29,2.37 3.744,0.962 3.229,-0.721 3.091,-1.099 3.022,-1.614 3.022,-2.129 v -9.996 H 0 Z"
             style="fill:#ffffff;fill-opacity:1;fill-rule:nonzero;stroke:none"
             id="path94" /></g><g
           id="g96"
           transform="translate(246.5811,74.9259)"
           style="fill:#ffffff"><path
             d="M 0,0 V -4.774 H 4.328 V -7.076 H 0 v -8.964 c 0,-2.061 0.583,-3.229 2.267,-3.229 0.79,0 1.374,0.103 1.752,0.206 l 0.137,-2.267 c -0.584,-0.24 -1.511,-0.412 -2.679,-0.412 -1.409,0 -2.542,0.447 -3.263,1.271 -0.859,0.893 -1.168,2.37 -1.168,4.328 v 9.067 H -5.53 v 2.302 h 2.576 v 3.984 z"
             style="fill:#ffffff;fill-opacity:1;fill-rule:nonzero;stroke:none"
             id="path98" /></g><g
           id="g100"
           transform="translate(264.647,63.4538)"
           style="fill:#ffffff"><path
             d="M 0,0 C 0.034,1.924 -0.79,4.912 -4.19,4.912 -7.248,4.912 -8.587,2.095 -8.828,0 Z m -8.862,-2.164 c 0.069,-4.087 2.679,-5.77 5.702,-5.77 2.164,0 3.469,0.378 4.602,0.859 l 0.516,-2.164 c -1.065,-0.481 -2.886,-1.031 -5.53,-1.031 -5.118,0 -8.175,3.366 -8.175,8.381 0,5.015 2.954,8.965 7.797,8.965 5.427,0 6.869,-4.775 6.869,-7.831 0,-0.619 -0.068,-1.099 -0.103,-1.409 z"
             style="fill:#ffffff;fill-opacity:1;fill-rule:nonzero;stroke:none"
             id="path102" /></g><g
           id="g104"
           transform="translate(271.3091,64.965)"
           style="fill:#ffffff"><path
             d="M 0,0 C 0,1.958 -0.034,3.641 -0.137,5.187 H 2.507 L 2.61,1.924 h 0.138 c 0.755,2.232 2.576,3.64 4.603,3.64 0.343,0 0.584,-0.034 0.858,-0.103 V 2.611 C 7.9,2.679 7.591,2.714 7.179,2.714 5.049,2.714 3.538,1.099 3.125,-1.167 3.057,-1.58 2.988,-2.061 2.988,-2.576 v -8.862 H 0 Z"
             style="fill:#ffffff;fill-opacity:1;fill-rule:nonzero;stroke:none"
             id="path106" /></g><g
           id="g108"
           transform="translate(282.6772,65.652)"
           style="fill:#ffffff"><path
             d="M 0,0 C 0,1.718 -0.034,3.126 -0.137,4.5 H 2.542 L 2.713,1.752 h 0.069 c 0.824,1.58 2.748,3.125 5.496,3.125 2.301,0 5.873,-1.374 5.873,-7.075 v -9.927 h -3.023 v 9.583 c 0,2.68 -0.995,4.912 -3.846,4.912 C 5.29,2.37 3.744,0.962 3.229,-0.721 3.091,-1.099 3.022,-1.614 3.022,-2.129 v -9.996 H 0 Z"
             style="fill:#ffffff;fill-opacity:1;fill-rule:nonzero;stroke:none"
             id="path110" /></g><g
           id="g112"
           transform="translate(310.498,62.0114)"
           style="fill:#ffffff"><path
             d="m 0,0 c -3.297,0.069 -7.042,-0.515 -7.042,-3.744 0,-1.958 1.306,-2.885 2.852,-2.885 2.164,0 3.538,1.374 4.018,2.782 C -0.068,-3.538 0,-3.194 0,-2.885 Z m 0.446,-8.484 -0.24,2.095 H 0.104 c -0.928,-1.305 -2.714,-2.473 -5.084,-2.473 -3.367,0 -5.084,2.37 -5.084,4.775 0,4.018 3.572,6.216 9.996,6.182 v 0.343 c 0,1.375 -0.378,3.848 -3.779,3.848 -1.546,0 -3.16,-0.481 -4.328,-1.237 l -0.687,1.992 c 1.374,0.893 3.366,1.477 5.462,1.477 5.084,0 6.32,-3.469 6.32,-6.801 V -4.5 c 0,-1.442 0.068,-2.851 0.274,-3.984 z"
             style="fill:#ffffff;fill-opacity:1;fill-rule:nonzero;stroke:none"
             id="path114" /></g><g
           id="g116"
           transform="translate(321.7979,74.9259)"
           style="fill:#ffffff"><path
             d="M 0,0 V -4.774 H 4.328 V -7.076 H 0 v -8.964 c 0,-2.061 0.584,-3.229 2.267,-3.229 0.79,0 1.374,0.103 1.752,0.206 l 0.137,-2.267 c -0.584,-0.24 -1.511,-0.412 -2.679,-0.412 -1.409,0 -2.541,0.447 -3.263,1.271 -0.859,0.893 -1.168,2.37 -1.168,4.328 v 9.067 H -5.53 v 2.302 h 2.576 v 3.984 z"
             style="fill:#ffffff;fill-opacity:1;fill-rule:nonzero;stroke:none"
             id="path118" /></g><path
           d="m 329.525,70.152 h 3.022 V 53.528 h -3.022 z m 3.367,4.671 c 0.034,-1.03 -0.722,-1.855 -1.924,-1.855 -1.065,0 -1.821,0.825 -1.821,1.855 0,1.065 0.79,1.889 1.889,1.889 1.134,0 1.856,-0.824 1.856,-1.889"
           style="fill:#ffffff;fill-opacity:1;fill-rule:nonzero;stroke:none"
           id="path120" /><g
           id="g122"
           transform="translate(339.417,61.8053)"
           style="fill:#ffffff"><path
             d="m 0,0 c 0,-3.641 2.095,-6.389 5.049,-6.389 2.885,0 5.049,2.714 5.049,6.458 0,2.816 -1.409,6.388 -4.981,6.388 C 1.545,6.457 0,3.16 0,0 m 13.189,0.172 c 0,-6.149 -4.259,-8.828 -8.278,-8.828 -4.499,0 -7.969,3.298 -7.969,8.553 0,5.564 3.642,8.827 8.245,8.827 4.773,0 8.002,-3.469 8.002,-8.552"
             style="fill:#ffffff;fill-opacity:1;fill-rule:nonzero;stroke:none"
             id="path124" /></g><g
           id="g126"
           transform="translate(356.418,65.652)"
           style="fill:#ffffff"><path
             d="m 0,0 c 0,1.718 -0.034,3.126 -0.138,4.5 h 2.68 L 2.714,1.752 h 0.068 c 0.824,1.58 2.748,3.125 5.495,3.125 2.302,0 5.874,-1.374 5.874,-7.075 v -9.927 h -3.022 v 9.583 c 0,2.68 -0.996,4.912 -3.848,4.912 C 5.29,2.37 3.744,0.962 3.229,-0.721 3.092,-1.099 3.022,-1.614 3.022,-2.129 v -9.996 H 0 Z"
             style="fill:#ffffff;fill-opacity:1;fill-rule:nonzero;stroke:none"
             id="path128" /></g><g
           id="g130"
           transform="translate(384.2383,62.0114)"
           style="fill:#ffffff"><path
             d="m 0,0 c -3.297,0.069 -7.041,-0.515 -7.041,-3.744 0,-1.958 1.306,-2.885 2.851,-2.885 2.164,0 3.538,1.374 4.019,2.782 C -0.068,-3.538 0,-3.194 0,-2.885 Z M 0.447,-8.484 0.206,-6.389 H 0.104 c -0.928,-1.305 -2.714,-2.473 -5.084,-2.473 -3.366,0 -5.083,2.37 -5.083,4.775 0,4.018 3.572,6.216 9.995,6.182 v 0.343 c 0,1.375 -0.378,3.848 -3.779,3.848 -1.546,0 -3.16,-0.481 -4.328,-1.237 l -0.686,1.992 c 1.374,0.893 3.366,1.477 5.461,1.477 5.084,0 6.32,-3.469 6.32,-6.801 V -4.5 c 0,-1.442 0.068,-2.851 0.274,-3.984 z"
             style="fill:#ffffff;fill-opacity:1;fill-rule:nonzero;stroke:none"
             id="path132" /></g><path
           d="m 392.035,77.914 h 3.022 V 53.527 h -3.022 z"
           style="fill:#ffffff;fill-opacity:1;fill-rule:nonzero;stroke:none"
           id="path134" /><g
           id="g136"
           transform="translate(80.8379,22.8044)"
           style="fill:#ffffff"><path
             d="M 0,0 C -1.261,0 -2.312,0.105 -3.152,0.315 -3.994,0.525 -4.666,0.861 -5.17,1.324 -5.675,1.787 -6.032,2.392 -6.242,3.14 -6.453,3.888 -6.558,4.809 -6.558,5.902 v 5.397 c 0,1.076 0.105,1.993 0.316,2.749 0.21,0.757 0.567,1.367 1.072,1.829 0.504,0.462 1.176,0.798 2.018,1.009 0.84,0.21 1.891,0.315 3.152,0.315 H 11.93 V 13.897 H 0.177 c -0.589,0 -1.072,-0.046 -1.45,-0.139 -0.379,-0.092 -0.678,-0.248 -0.896,-0.466 -0.219,-0.219 -0.37,-0.509 -0.454,-0.87 -0.084,-0.362 -0.126,-0.803 -0.126,-1.324 V 6.053 c 0,-0.538 0.042,-0.984 0.126,-1.337 0.084,-0.353 0.235,-0.639 0.454,-0.857 0.218,-0.219 0.521,-0.37 0.908,-0.454 0.386,-0.084 0.874,-0.126 1.463,-0.126 H 11.93 V 0 Z"
             style="fill:#ffffff;fill-opacity:1;fill-rule:nonzero;stroke:none"
             id="path138" /></g><g
           id="g140"
           transform="translate(109.061,30.4211)"
           style="fill:#ffffff"><path
             d="m 0,0 c 0,0.572 -0.046,1.042 -0.139,1.413 -0.092,0.369 -0.26,0.659 -0.504,0.87 -0.244,0.21 -0.585,0.353 -1.022,0.428 -0.437,0.076 -0.992,0.114 -1.664,0.114 H -6.886 C -7.558,2.825 -8.109,2.787 -8.538,2.711 -8.966,2.636 -9.303,2.493 -9.546,2.283 -9.791,2.072 -9.958,1.782 -10.051,1.413 -10.144,1.042 -10.189,0.572 -10.189,0 v -1.614 c 0,-0.572 0.045,-1.038 0.138,-1.4 0.093,-0.361 0.26,-0.647 0.505,-0.857 0.243,-0.211 0.58,-0.358 1.008,-0.441 0.429,-0.085 0.98,-0.127 1.652,-0.127 h 3.557 c 0.672,0 1.227,0.042 1.664,0.127 0.437,0.083 0.778,0.23 1.022,0.441 0.244,0.21 0.412,0.496 0.504,0.857 0.093,0.362 0.139,0.828 0.139,1.4 z m -7.39,-7.617 c -1.261,0 -2.312,0.105 -3.152,0.316 -0.842,0.21 -1.514,0.546 -2.019,1.009 -0.504,0.462 -0.861,1.067 -1.071,1.815 -0.211,0.748 -0.316,1.669 -0.316,2.762 v 1.841 c 0,1.093 0.105,2.018 0.316,2.775 0.21,0.756 0.567,1.366 1.071,1.828 0.505,0.462 1.177,0.799 2.019,1.009 0.84,0.21 1.891,0.315 3.152,0.315 h 4.565 c 1.278,0 2.337,-0.105 3.178,-0.315 C 1.194,5.528 1.866,5.187 2.371,4.717 2.875,4.246 3.232,3.632 3.443,2.875 3.653,2.119 3.758,1.194 3.758,0.101 V -1.715 C 3.758,-2.808 3.653,-3.729 3.443,-4.477 3.232,-5.225 2.875,-5.83 2.371,-6.292 1.866,-6.755 1.194,-7.091 0.353,-7.301 c -0.841,-0.211 -1.9,-0.316 -3.178,-0.316 z"
             style="fill:#ffffff;fill-opacity:1;fill-rule:nonzero;stroke:none"
             id="path142" /></g><path
           d="m 115.669,40.888 h 3.833 V 22.804 h -3.833 z"
           style="fill:#ffffff;fill-opacity:1;fill-rule:nonzero;stroke:none"
           id="path144" /><path
           d="m 122.479,40.888 h 3.833 V 22.804 h -3.833 z"
           style="fill:#ffffff;fill-opacity:1;fill-rule:nonzero;stroke:none"
           id="path146" /><g
           id="g148"
           transform="translate(143.8154,28.9836)"
           style="fill:#ffffff"><path
             d="m 0,0 h -9.71 c -0.437,0 -0.782,-0.097 -1.034,-0.29 -0.253,-0.193 -0.379,-0.559 -0.379,-1.097 V -2.32 c 0,-0.488 0.135,-0.825 0.404,-1.009 0.269,-0.185 0.647,-0.277 1.135,-0.277 h 7.062 c 0.437,0 0.815,0.033 1.135,0.1 0.319,0.068 0.58,0.19 0.782,0.366 0.202,0.177 0.353,0.425 0.454,0.744 C -0.05,-2.077 0,-1.665 0,-1.16 Z m -9.861,-6.179 c -0.993,0 -1.808,0.084 -2.447,0.252 -0.639,0.168 -1.148,0.407 -1.526,0.719 -0.378,0.311 -0.643,0.689 -0.794,1.135 -0.152,0.445 -0.227,0.946 -0.227,1.501 v 1.286 c 0,0.571 0.071,1.08 0.214,1.526 0.142,0.445 0.391,0.823 0.744,1.135 0.353,0.311 0.836,0.546 1.45,0.706 0.614,0.16 1.391,0.239 2.333,0.239 L 0,2.32 V 2.623 C 0,3.497 -0.176,4.082 -0.529,4.376 -0.883,4.67 -1.479,4.817 -2.32,4.817 h -3.733 v 2.674 h 3.733 c 1.092,0 2.021,-0.101 2.787,-0.303 C 1.231,6.986 1.858,6.68 2.346,6.268 2.833,5.855 3.19,5.334 3.417,4.704 3.645,4.073 3.758,3.321 3.758,2.447 v -3.33 c 0,-0.992 -0.097,-1.825 -0.29,-2.496 C 3.274,-4.052 2.938,-4.599 2.459,-5.019 1.98,-5.439 1.341,-5.738 0.542,-5.915 -0.256,-6.091 -1.261,-6.179 -2.472,-6.179 Z"
             style="fill:#ffffff;fill-opacity:1;fill-rule:nonzero;stroke:none"
             id="path150" /></g><g
           id="g152"
           transform="translate(164.5225,30.4211)"
           style="fill:#ffffff"><path
             d="M 0,0 C 0,0.588 -0.042,1.068 -0.126,1.438 -0.21,1.808 -0.362,2.094 -0.58,2.295 -0.799,2.497 -1.102,2.636 -1.488,2.711 -1.875,2.787 -2.362,2.825 -2.951,2.825 h -7.466 v -4.464 c 0,-0.555 0.042,-1.013 0.126,-1.375 0.084,-0.361 0.236,-0.647 0.455,-0.857 0.218,-0.211 0.517,-0.358 0.895,-0.441 0.378,-0.085 0.861,-0.127 1.45,-0.127 h 4.54 c 0.589,0 1.076,0.042 1.463,0.127 0.386,0.083 0.689,0.23 0.908,0.441 0.218,0.21 0.37,0.496 0.454,0.857 0.084,0.362 0.126,0.828 0.126,1.4 z m -7.617,-7.617 c -1.261,0 -2.312,0.105 -3.153,0.316 -0.84,0.21 -1.513,0.546 -2.017,1.009 -0.505,0.462 -0.862,1.067 -1.072,1.815 -0.211,0.748 -0.315,1.669 -0.315,2.762 v 12.182 h 3.757 V 6.053 h 7.592 c 1.278,0 2.337,-0.105 3.178,-0.315 C 1.194,5.528 1.867,5.191 2.371,4.729 2.875,4.267 3.232,3.657 3.443,2.901 3.653,2.144 3.758,1.219 3.758,0.126 V -1.715 C 3.758,-2.808 3.653,-3.729 3.443,-4.477 3.232,-5.225 2.875,-5.83 2.371,-6.292 1.867,-6.755 1.194,-7.091 0.353,-7.301 c -0.841,-0.211 -1.9,-0.316 -3.178,-0.316 z"
             style="fill:#ffffff;fill-opacity:1;fill-rule:nonzero;stroke:none"
             id="path154" /></g><g
           id="g156"
           transform="translate(184.9521,30.4211)"
           style="fill:#ffffff"><path
             d="m 0,0 c 0,0.572 -0.046,1.042 -0.139,1.413 -0.092,0.369 -0.26,0.659 -0.504,0.87 -0.244,0.21 -0.585,0.353 -1.022,0.428 -0.437,0.076 -0.992,0.114 -1.664,0.114 H -6.886 C -7.558,2.825 -8.109,2.787 -8.538,2.711 -8.966,2.636 -9.303,2.493 -9.546,2.283 -9.791,2.072 -9.958,1.782 -10.051,1.413 -10.144,1.042 -10.189,0.572 -10.189,0 v -1.614 c 0,-0.572 0.045,-1.038 0.138,-1.4 0.093,-0.361 0.26,-0.647 0.505,-0.857 0.243,-0.211 0.58,-0.358 1.008,-0.441 0.429,-0.085 0.98,-0.127 1.652,-0.127 h 3.557 c 0.672,0 1.227,0.042 1.664,0.127 0.437,0.083 0.778,0.23 1.022,0.441 0.244,0.21 0.412,0.496 0.504,0.857 0.093,0.362 0.139,0.828 0.139,1.4 z m -7.39,-7.617 c -1.261,0 -2.312,0.105 -3.152,0.316 -0.842,0.21 -1.514,0.546 -2.019,1.009 -0.504,0.462 -0.861,1.067 -1.071,1.815 -0.211,0.748 -0.316,1.669 -0.316,2.762 v 1.841 c 0,1.093 0.105,2.018 0.316,2.775 0.21,0.756 0.567,1.366 1.071,1.828 0.505,0.462 1.177,0.799 2.019,1.009 0.84,0.21 1.891,0.315 3.152,0.315 h 4.565 c 1.278,0 2.337,-0.105 3.178,-0.315 C 1.194,5.528 1.866,5.187 2.371,4.717 2.875,4.246 3.232,3.632 3.443,2.875 3.653,2.119 3.758,1.194 3.758,0.101 V -1.715 C 3.758,-2.808 3.653,-3.729 3.443,-4.477 3.232,-5.225 2.875,-5.83 2.371,-6.292 1.866,-6.755 1.194,-7.091 0.353,-7.301 c -0.841,-0.211 -1.9,-0.316 -3.178,-0.316 z"
             style="fill:#ffffff;fill-opacity:1;fill-rule:nonzero;stroke:none"
             id="path158" /></g><g
           id="g160"
           transform="translate(191.4346,22.8044)"
           style="fill:#ffffff"><path
             d="m 0,0 v 7.919 c 0,1.026 0.117,1.9 0.353,2.623 0.235,0.724 0.609,1.316 1.122,1.779 0.513,0.462 1.173,0.803 1.98,1.021 0.807,0.219 1.791,0.328 2.951,0.328 H 8.853 V 10.618 H 6.507 C 5.986,10.618 5.548,10.576 5.195,10.492 4.842,10.408 4.561,10.265 4.351,10.063 4.14,9.862 3.989,9.584 3.896,9.231 3.804,8.878 3.758,8.432 3.758,7.895 V 0 Z"
             style="fill:#ffffff;fill-opacity:1;fill-rule:nonzero;stroke:none"
             id="path162" /></g><g
           id="g164"
           transform="translate(215.5962,28.9836)"
           style="fill:#ffffff"><path
             d="m 0,0 h -9.71 c -0.437,0 -0.782,-0.097 -1.034,-0.29 -0.253,-0.193 -0.379,-0.559 -0.379,-1.097 V -2.32 c 0,-0.488 0.135,-0.825 0.404,-1.009 0.269,-0.185 0.647,-0.277 1.135,-0.277 h 7.062 c 0.437,0 0.815,0.033 1.135,0.1 0.319,0.068 0.58,0.19 0.782,0.366 0.202,0.177 0.353,0.425 0.454,0.744 C -0.05,-2.077 0,-1.665 0,-1.16 Z m -9.861,-6.179 c -0.993,0 -1.808,0.084 -2.447,0.252 -0.639,0.168 -1.148,0.407 -1.526,0.719 -0.378,0.311 -0.643,0.689 -0.794,1.135 -0.152,0.445 -0.227,0.946 -0.227,1.501 v 1.286 c 0,0.571 0.071,1.08 0.214,1.526 0.142,0.445 0.391,0.823 0.744,1.135 0.353,0.311 0.836,0.546 1.45,0.706 0.614,0.16 1.391,0.239 2.333,0.239 L 0,2.32 V 2.623 C 0,3.497 -0.176,4.082 -0.529,4.376 -0.883,4.67 -1.479,4.817 -2.32,4.817 h -3.733 v 2.674 h 3.733 c 1.092,0 2.021,-0.101 2.787,-0.303 C 1.231,6.986 1.858,6.68 2.346,6.268 2.833,5.855 3.19,5.334 3.417,4.704 3.645,4.073 3.758,3.321 3.758,2.447 v -3.33 c 0,-0.992 -0.097,-1.825 -0.29,-2.496 C 3.274,-4.052 2.938,-4.599 2.459,-5.019 1.98,-5.439 1.341,-5.738 0.542,-5.915 -0.256,-6.091 -1.261,-6.179 -2.472,-6.179 Z"
             style="fill:#ffffff;fill-opacity:1;fill-rule:nonzero;stroke:none"
             id="path166" /></g><g
           id="g168"
           transform="translate(222.9863,22.8044)"
           style="fill:#ffffff"><path
             d="M 0,0 V 10.618 H -1.917 V 13.67 H 0 v 3.859 H 3.833 V 13.67 H 8.146 V 10.618 H 3.833 L 3.833,0 Z"
             style="fill:#ffffff;fill-opacity:1;fill-rule:nonzero;stroke:none"
             id="path170" /></g><path
           d="m 232.949,36.121 h 3.833 V 22.804 h -3.833 z m 1.286,1.136 c -0.471,0 -0.803,0.092 -0.996,0.277 -0.194,0.184 -0.29,0.479 -0.29,0.883 v 1.463 c 0,0.403 0.096,0.693 0.29,0.87 0.193,0.176 0.525,0.264 0.996,0.264 h 1.236 c 0.487,0 0.828,-0.088 1.021,-0.264 0.193,-0.177 0.29,-0.467 0.29,-0.87 v -1.463 c 0,-0.404 -0.097,-0.699 -0.29,-0.883 -0.193,-0.185 -0.534,-0.277 -1.021,-0.277 z"
           style="fill:#ffffff;fill-opacity:1;fill-rule:nonzero;stroke:none"
           id="path172" /><g
           id="g174"
           transform="translate(252.6714,23.7126)"
           style="fill:#ffffff"><path
             d="m 0,0 c -0.286,-0.387 -0.618,-0.698 -0.996,-0.934 -0.379,-0.234 -0.904,-0.353 -1.576,-0.353 -0.707,0 -1.245,0.119 -1.615,0.353 -0.37,0.236 -0.698,0.547 -0.983,0.934 l -9.004,12.762 h 4.489 L -2.522,2.295 4.565,12.762 h 4.439 z"
             style="fill:#ffffff;fill-opacity:1;fill-rule:nonzero;stroke:none"
             id="path176" /></g><g
           id="g178"
           transform="translate(276.0776,32.4391)"
           style="fill:#ffffff"><path
             d="m 0,0 c 0,0.454 -0.114,0.756 -0.341,0.908 -0.227,0.151 -0.626,0.227 -1.198,0.227 h -6.255 c -0.471,0 -0.866,-0.021 -1.185,-0.063 -0.32,-0.042 -0.576,-0.139 -0.77,-0.29 -0.193,-0.152 -0.332,-0.37 -0.416,-0.656 -0.084,-0.286 -0.126,-0.673 -0.126,-1.16 v -0.732 l 10.291,0 z m -10.291,-4.187 v -0.63 c 0,-0.421 0.034,-0.757 0.101,-1.009 0.067,-0.253 0.19,-0.45 0.366,-0.593 0.177,-0.143 0.412,-0.24 0.706,-0.29 0.294,-0.05 0.66,-0.076 1.097,-0.076 h 4.439 v -2.85 h -4.439 c -2.169,0 -3.716,0.412 -4.641,1.236 -0.924,0.824 -1.387,2.144 -1.387,3.96 v 3.152 c 0,0.993 0.097,1.829 0.29,2.51 0.194,0.681 0.53,1.227 1.009,1.64 0.479,0.411 1.114,0.71 1.904,0.895 0.791,0.185 1.791,0.277 3.002,0.277 h 6.608 C -0.261,4.035 0.55,3.943 1.198,3.758 1.845,3.573 2.358,3.316 2.736,2.989 3.115,2.661 3.379,2.266 3.531,1.803 3.682,1.341 3.758,0.84 3.758,0.303 v -4.49 z"
             style="fill:#ffffff;fill-opacity:1;fill-rule:nonzero;stroke:none"
             id="path180" /></g><g
           id="g182"
           transform="translate(308.9658,34.6335)"
           style="fill:#ffffff"><path
             d="M 0,0 C 0,0.454 -0.051,0.824 -0.151,1.109 -0.252,1.396 -0.421,1.614 -0.655,1.765 -0.892,1.917 -1.22,2.018 -1.64,2.068 -2.06,2.119 -2.582,2.144 -3.203,2.144 h -9.408 v -5.247 h 9.408 c 0.621,0 1.139,0.026 1.551,0.076 0.412,0.051 0.74,0.152 0.984,0.303 0.243,0.151 0.416,0.37 0.517,0.656 0.1,0.285 0.151,0.664 0.151,1.134 z m -2.547,-11.829 -10.064,6.255 v -6.255 h -3.808 V 5.372 h 13.468 c 1.211,0 2.245,-0.076 3.102,-0.227 C 1.009,4.994 1.711,4.725 2.258,4.338 2.804,3.951 3.203,3.421 3.455,2.749 3.708,2.076 3.834,1.227 3.834,0.202 V -0.984 C 3.834,-1.976 3.699,-2.796 3.431,-3.443 3.161,-4.09 2.745,-4.603 2.182,-4.981 1.618,-5.36 0.908,-5.625 0.051,-5.776 -0.807,-5.927 -1.824,-6.003 -3.001,-6.003 h -3.027 l 10.089,-5.826 z"
             style="fill:#ffffff;fill-opacity:1;fill-rule:nonzero;stroke:none"
             id="path184" /></g><g
           id="g186"
           transform="translate(328.79,30.4211)"
           style="fill:#ffffff"><path
             d="m 0,0 c 0,0.572 -0.046,1.042 -0.139,1.413 -0.092,0.369 -0.26,0.659 -0.504,0.87 -0.244,0.21 -0.585,0.353 -1.021,0.428 -0.438,0.076 -0.992,0.114 -1.665,0.114 H -6.886 C -7.558,2.825 -8.108,2.787 -8.537,2.711 -8.966,2.636 -9.303,2.493 -9.546,2.283 -9.79,2.072 -9.958,1.782 -10.051,1.413 -10.144,1.042 -10.189,0.572 -10.189,0 v -1.614 c 0,-0.572 0.045,-1.038 0.138,-1.4 0.093,-0.361 0.261,-0.647 0.505,-0.857 0.243,-0.211 0.58,-0.358 1.009,-0.441 0.429,-0.085 0.979,-0.127 1.651,-0.127 h 3.557 c 0.673,0 1.227,0.042 1.665,0.127 0.436,0.083 0.777,0.23 1.021,0.441 0.244,0.21 0.412,0.496 0.504,0.857 0.093,0.362 0.139,0.828 0.139,1.4 z m -7.39,-7.617 c -1.26,0 -2.312,0.105 -3.152,0.316 -0.842,0.21 -1.514,0.546 -2.019,1.009 -0.503,0.462 -0.861,1.067 -1.071,1.815 -0.211,0.748 -0.315,1.669 -0.315,2.762 v 1.841 c 0,1.093 0.104,2.018 0.315,2.775 0.21,0.756 0.568,1.366 1.071,1.828 0.505,0.462 1.177,0.799 2.019,1.009 0.84,0.21 1.892,0.315 3.152,0.315 h 4.566 c 1.277,0 2.337,-0.105 3.178,-0.315 C 1.194,5.528 1.866,5.187 2.371,4.717 2.875,4.246 3.232,3.632 3.443,2.875 3.653,2.119 3.758,1.194 3.758,0.101 V -1.715 C 3.758,-2.808 3.653,-3.729 3.443,-4.477 3.232,-5.225 2.875,-5.83 2.371,-6.292 1.866,-6.755 1.194,-7.091 0.354,-7.301 -0.487,-7.512 -1.547,-7.617 -2.824,-7.617 Z"
             style="fill:#ffffff;fill-opacity:1;fill-rule:nonzero;stroke:none"
             id="path188" /></g><g
           id="g190"
           transform="translate(349.4971,30.4211)"
           style="fill:#ffffff"><path
             d="m 0,0 c 0,0.588 -0.042,1.068 -0.126,1.438 -0.085,0.37 -0.236,0.656 -0.454,0.857 -0.219,0.202 -0.522,0.341 -0.908,0.416 -0.387,0.076 -0.874,0.114 -1.463,0.114 h -7.466 v -4.464 c 0,-0.555 0.042,-1.013 0.126,-1.375 0.084,-0.361 0.235,-0.647 0.454,-0.857 0.219,-0.211 0.518,-0.358 0.896,-0.441 0.378,-0.085 0.861,-0.127 1.45,-0.127 h 4.54 c 0.589,0 1.076,0.042 1.463,0.127 0.386,0.083 0.689,0.23 0.908,0.441 0.218,0.21 0.369,0.496 0.454,0.857 0.084,0.362 0.126,0.828 0.126,1.4 z m -7.617,-7.617 c -1.261,0 -2.313,0.105 -3.153,0.316 -0.84,0.21 -1.513,0.546 -2.017,1.009 -0.505,0.462 -0.862,1.067 -1.072,1.815 -0.211,0.748 -0.316,1.669 -0.316,2.762 v 12.182 h 3.758 V 6.053 h 7.592 c 1.277,0 2.337,-0.105 3.178,-0.315 C 1.193,5.528 1.866,5.191 2.371,4.729 2.875,4.267 3.232,3.657 3.442,2.901 3.652,2.144 3.758,1.219 3.758,0.126 V -1.715 C 3.758,-2.808 3.652,-3.729 3.442,-4.477 3.232,-5.225 2.875,-5.83 2.371,-6.292 1.866,-6.755 1.193,-7.091 0.353,-7.301 -0.488,-7.512 -1.548,-7.617 -2.825,-7.617 Z"
             style="fill:#ffffff;fill-opacity:1;fill-rule:nonzero;stroke:none"
             id="path192" /></g><g
           id="g194"
           transform="translate(369.9268,30.4211)"
           style="fill:#ffffff"><path
             d="m 0,0 c 0,0.572 -0.047,1.042 -0.139,1.413 -0.092,0.369 -0.26,0.659 -0.505,0.87 -0.243,0.21 -0.584,0.353 -1.021,0.428 -0.438,0.076 -0.992,0.114 -1.664,0.114 H -6.886 C -7.559,2.825 -8.108,2.787 -8.537,2.711 -8.967,2.636 -9.303,2.493 -9.547,2.283 -9.79,2.072 -9.959,1.782 -10.051,1.413 -10.144,1.042 -10.189,0.572 -10.189,0 v -1.614 c 0,-0.572 0.045,-1.038 0.138,-1.4 0.092,-0.361 0.261,-0.647 0.504,-0.857 0.244,-0.211 0.58,-0.358 1.01,-0.441 0.429,-0.085 0.978,-0.127 1.651,-0.127 h 3.557 c 0.672,0 1.226,0.042 1.664,0.127 0.437,0.083 0.778,0.23 1.021,0.441 0.245,0.21 0.413,0.496 0.505,0.857 0.092,0.362 0.139,0.828 0.139,1.4 z m -7.39,-7.617 c -1.261,0 -2.312,0.105 -3.152,0.316 -0.842,0.21 -1.515,0.546 -2.019,1.009 -0.504,0.462 -0.862,1.067 -1.072,1.815 -0.21,0.748 -0.315,1.669 -0.315,2.762 v 1.841 c 0,1.093 0.105,2.018 0.315,2.775 0.21,0.756 0.568,1.366 1.072,1.828 0.504,0.462 1.177,0.799 2.019,1.009 0.84,0.21 1.891,0.315 3.152,0.315 h 4.565 c 1.278,0 2.337,-0.105 3.179,-0.315 C 1.193,5.528 1.866,5.187 2.371,4.717 2.875,4.246 3.232,3.632 3.442,2.875 3.652,2.119 3.758,1.194 3.758,0.101 V -1.715 C 3.758,-2.808 3.652,-3.729 3.442,-4.477 3.232,-5.225 2.875,-5.83 2.371,-6.292 1.866,-6.755 1.193,-7.091 0.354,-7.301 -0.488,-7.512 -1.547,-7.617 -2.825,-7.617 Z"
             style="fill:#ffffff;fill-opacity:1;fill-rule:nonzero;stroke:none"
             id="path196" /></g><g
           id="g198"
           transform="translate(377.3164,22.8044)"
           style="fill:#ffffff"><path
             d="M 0,0 V 10.618 H -1.916 V 13.67 H 0 v 3.859 H 3.834 V 13.67 H 8.147 V 10.618 H 3.834 L 3.834,0 Z"
             style="fill:#ffffff;fill-opacity:1;fill-rule:nonzero;stroke:none"
             id="path200" /></g><path
           d="m 387.279,36.121 h 3.833 V 22.804 h -3.833 z m 1.286,1.136 c -0.47,0 -0.802,0.092 -0.996,0.277 -0.193,0.184 -0.29,0.479 -0.29,0.883 v 1.463 c 0,0.403 0.097,0.693 0.29,0.87 0.194,0.176 0.526,0.264 0.996,0.264 h 1.236 c 0.488,0 0.828,-0.088 1.021,-0.264 0.194,-0.177 0.29,-0.467 0.29,-0.87 v -1.463 c 0,-0.404 -0.096,-0.699 -0.29,-0.883 -0.193,-0.185 -0.533,-0.277 -1.021,-0.277 z"
           style="fill:#ffffff;fill-opacity:1;fill-rule:nonzero;stroke:none"
           id="path202" /><g
           id="g204"
           transform="translate(400.5205,22.8044)"
           style="fill:#ffffff"><path
             d="m 0,0 c -1.262,0 -2.313,0.105 -3.153,0.315 -0.841,0.21 -1.513,0.546 -2.018,1.009 -0.504,0.463 -0.861,1.068 -1.072,1.816 -0.21,0.748 -0.315,1.669 -0.315,2.762 v 1.841 c 0,1.093 0.105,2.018 0.315,2.775 0.211,0.756 0.568,1.365 1.072,1.828 0.505,0.462 1.177,0.799 2.018,1.009 0.84,0.21 1.891,0.315 3.153,0.315 H 9.887 V 10.442 H 0.126 c -0.589,0 -1.072,-0.043 -1.45,-0.127 C -1.703,10.231 -2.002,10.084 -2.22,9.875 -2.438,9.664 -2.59,9.374 -2.674,9.004 -2.758,8.634 -2.8,8.172 -2.8,7.617 V 6.003 c 0,-0.539 0.042,-0.988 0.126,-1.35 0.084,-0.361 0.236,-0.652 0.454,-0.87 0.218,-0.219 0.517,-0.374 0.896,-0.467 0.378,-0.092 0.861,-0.138 1.45,-0.138 H 9.912 L 9.912,0 Z"
             style="fill:#ffffff;fill-opacity:1;fill-rule:nonzero;stroke:none"
             id="path206" /></g><g
           id="g208"
           transform="translate(429.2227,26.4362)"
           style="fill:#ffffff"><path
             d="M 0,0 C 0,-0.673 -0.06,-1.24 -0.177,-1.702 -0.295,-2.165 -0.526,-2.539 -0.87,-2.825 -1.216,-3.111 -1.687,-3.316 -2.283,-3.443 -2.88,-3.569 -3.657,-3.632 -4.616,-3.632 h -11.753 v 2.951 h 11.274 c 0.504,0 0.858,0.084 1.059,0.252 0.202,0.168 0.303,0.488 0.303,0.959 v 0.454 c 0,0.504 -0.097,0.819 -0.29,0.946 -0.194,0.126 -0.517,0.189 -0.971,0.189 h -7.668 c -0.774,0 -1.4,0.075 -1.879,0.227 -0.479,0.151 -0.854,0.378 -1.122,0.681 -0.27,0.302 -0.45,0.676 -0.542,1.122 -0.093,0.445 -0.139,0.971 -0.139,1.577 v 1.033 c 0,0.589 0.063,1.093 0.189,1.514 0.127,0.42 0.332,0.76 0.618,1.021 0.286,0.261 0.673,0.45 1.16,0.568 0.487,0.117 1.102,0.176 1.842,0.176 h 5.195 v -2.85 h -4.288 c -0.37,0 -0.635,-0.067 -0.794,-0.202 -0.16,-0.134 -0.24,-0.378 -0.24,-0.731 v -0.63 c 0,-0.388 0.076,-0.648 0.227,-0.782 0.152,-0.135 0.395,-0.202 0.732,-0.202 h 7.415 c 0.874,0 1.589,-0.072 2.143,-0.215 C -1.59,4.283 -1.152,4.057 -0.833,3.746 -0.514,3.434 -0.295,3.031 -0.177,2.535 -0.06,2.039 0,1.429 0,0.706 Z"
             style="fill:#ffffff;fill-opacity:1;fill-rule:nonzero;stroke:none"
             id="path210" /></g><g
           id="g212"
           transform="translate(458.1514,34.3053)"
           style="fill:#ffffff"><path
             d="m 0,0 c 0,0.925 -0.197,1.555 -0.593,1.892 -0.394,0.336 -1.105,0.504 -2.131,0.504 h -9.837 V -3.48 h 9.888 c 1.009,0 1.706,0.155 2.093,0.466 0.387,0.311 0.58,0.921 0.58,1.828 z m -12.561,-6.583 v -4.918 h -3.833 V 5.7 H -2.623 C -1.396,5.7 -0.37,5.603 0.454,5.41 1.278,5.217 1.942,4.897 2.447,4.452 2.951,4.006 3.309,3.43 3.519,2.724 3.729,2.018 3.834,1.16 3.834,0.151 V -1.336 C 3.834,-2.362 3.733,-3.212 3.531,-3.884 3.329,-4.557 2.98,-5.095 2.484,-5.498 1.988,-5.902 1.328,-6.184 0.505,-6.343 c -0.824,-0.16 -1.866,-0.24 -3.128,-0.24 z"
             style="fill:#ffffff;fill-opacity:1;fill-rule:nonzero;stroke:none"
             id="path214" /></g><g
           id="g216"
           transform="translate(464.3809,22.8044)"
           style="fill:#ffffff"><path
             d="m 0,0 v 7.919 c 0,1.026 0.117,1.9 0.353,2.623 0.235,0.724 0.609,1.316 1.123,1.779 0.512,0.462 1.172,0.803 1.979,1.021 0.808,0.219 1.791,0.328 2.951,0.328 H 8.853 V 10.618 H 6.507 C 5.985,10.618 5.549,10.576 5.195,10.492 4.843,10.408 4.561,10.265 4.351,10.063 4.14,9.862 3.988,9.584 3.896,9.231 3.804,8.878 3.758,8.432 3.758,7.895 V 0 Z"
             style="fill:#ffffff;fill-opacity:1;fill-rule:nonzero;stroke:none"
             id="path218" /></g><g
           id="g220"
           transform="translate(488.9209,30.4211)"
           style="fill:#ffffff"><path
             d="m 0,0 c 0,0.572 -0.047,1.042 -0.139,1.413 -0.092,0.369 -0.26,0.659 -0.505,0.87 -0.243,0.21 -0.584,0.353 -1.021,0.428 -0.438,0.076 -0.992,0.114 -1.664,0.114 H -6.886 C -7.559,2.825 -8.108,2.787 -8.537,2.711 -8.967,2.636 -9.303,2.493 -9.547,2.283 -9.79,2.072 -9.959,1.782 -10.051,1.413 -10.144,1.042 -10.189,0.572 -10.189,0 v -1.614 c 0,-0.572 0.045,-1.038 0.138,-1.4 0.092,-0.361 0.261,-0.647 0.504,-0.857 0.244,-0.211 0.58,-0.358 1.01,-0.441 0.429,-0.085 0.978,-0.127 1.651,-0.127 h 3.557 c 0.672,0 1.226,0.042 1.664,0.127 0.437,0.083 0.778,0.23 1.021,0.441 0.245,0.21 0.413,0.496 0.505,0.857 0.092,0.362 0.139,0.828 0.139,1.4 z m -7.39,-7.617 c -1.261,0 -2.312,0.105 -3.153,0.316 -0.841,0.21 -1.513,0.546 -2.018,1.009 -0.503,0.462 -0.861,1.067 -1.072,1.815 -0.21,0.748 -0.314,1.669 -0.314,2.762 v 1.841 c 0,1.093 0.104,2.018 0.314,2.775 0.211,0.756 0.569,1.366 1.072,1.828 0.505,0.462 1.177,0.799 2.018,1.009 0.841,0.21 1.892,0.315 3.153,0.315 h 4.565 c 1.278,0 2.337,-0.105 3.179,-0.315 C 1.193,5.528 1.866,5.187 2.371,4.717 2.875,4.246 3.232,3.632 3.442,2.875 3.652,2.119 3.758,1.194 3.758,0.101 V -1.715 C 3.758,-2.808 3.652,-3.729 3.442,-4.477 3.232,-5.225 2.875,-5.83 2.371,-6.292 1.866,-6.755 1.193,-7.091 0.354,-7.301 -0.488,-7.512 -1.547,-7.617 -2.825,-7.617 Z"
             style="fill:#ffffff;fill-opacity:1;fill-rule:nonzero;stroke:none"
             id="path222" /></g><g
           id="g224"
           transform="translate(509.376,30.9509)"
           style="fill:#ffffff"><path
             d="M 0,0 C 0,0.908 -0.177,1.521 -0.529,1.841 -0.883,2.161 -1.521,2.32 -2.446,2.32 h -5.903 c -0.874,0 -1.471,-0.163 -1.79,-0.491 -0.32,-0.328 -0.479,-0.946 -0.479,-1.854 v -1.791 c 0,-0.37 0.038,-0.673 0.113,-0.908 0.076,-0.235 0.202,-0.424 0.379,-0.568 0.176,-0.143 0.407,-0.239 0.693,-0.29 0.286,-0.05 0.647,-0.075 1.084,-0.075 l 8.349,0 z m -6.76,-12.232 v 3.077 h 5.222 c 0.555,0 0.949,0.109 1.184,0.327 C -0.118,-8.609 0,-8.23 0,-7.692 v 1.109 h -8.575 c -1.043,0 -1.93,0.084 -2.661,0.252 -0.732,0.168 -1.325,0.433 -1.779,0.795 -0.454,0.361 -0.781,0.832 -0.983,1.412 -0.202,0.581 -0.303,1.282 -0.303,2.106 v 2.094 c 0,1.042 0.089,1.912 0.265,2.61 0.177,0.698 0.488,1.257 0.933,1.677 0.446,0.421 1.051,0.719 1.816,0.896 0.766,0.177 1.728,0.264 2.889,0.264 h 6.103 c 1.126,0 2.072,-0.1 2.837,-0.302 C 1.308,5.019 1.921,4.7 2.384,4.263 2.846,3.825 3.174,3.262 3.367,2.573 3.561,1.883 3.657,1.051 3.657,0.076 v -7.97 c 0,-1.53 -0.378,-2.636 -1.135,-3.317 -0.756,-0.681 -1.993,-1.021 -3.708,-1.021 z"
             style="fill:#ffffff;fill-opacity:1;fill-rule:nonzero;stroke:none"
             id="path226" /></g><g
           id="g228"
           transform="translate(515.8574,22.8044)"
           style="fill:#ffffff"><path
             d="m 0,0 v 7.919 c 0,1.026 0.117,1.9 0.353,2.623 0.235,0.724 0.609,1.316 1.123,1.779 0.512,0.462 1.172,0.803 1.979,1.021 0.808,0.219 1.791,0.328 2.951,0.328 H 8.853 V 10.618 H 6.507 C 5.985,10.618 5.549,10.576 5.195,10.492 4.843,10.408 4.561,10.265 4.351,10.063 4.14,9.862 3.988,9.584 3.896,9.231 3.804,8.878 3.758,8.432 3.758,7.895 V 0 Z"
             style="fill:#ffffff;fill-opacity:1;fill-rule:nonzero;stroke:none"
             id="path230" /></g><g
           id="g232"
           transform="translate(540.0195,28.9836)"
           style="fill:#ffffff"><path
             d="m 0,0 h -9.71 c -0.437,0 -0.782,-0.097 -1.034,-0.29 -0.252,-0.193 -0.379,-0.559 -0.379,-1.097 V -2.32 c 0,-0.488 0.135,-0.825 0.404,-1.009 0.269,-0.185 0.647,-0.277 1.135,-0.277 h 7.062 c 0.437,0 0.815,0.033 1.135,0.1 0.32,0.068 0.58,0.19 0.782,0.366 0.202,0.177 0.353,0.425 0.454,0.744 C -0.051,-2.077 0,-1.665 0,-1.16 Z m -9.861,-6.179 c -0.993,0 -1.808,0.084 -2.447,0.252 -0.639,0.168 -1.148,0.407 -1.526,0.719 -0.378,0.311 -0.644,0.689 -0.795,1.135 -0.15,0.445 -0.226,0.946 -0.226,1.501 v 1.286 c 0,0.571 0.071,1.08 0.214,1.526 0.143,0.445 0.391,0.823 0.744,1.135 0.353,0.311 0.836,0.546 1.451,0.706 0.613,0.16 1.39,0.239 2.333,0.239 L 0,2.32 V 2.623 C 0,3.497 -0.177,4.082 -0.529,4.376 -0.883,4.67 -1.479,4.817 -2.32,4.817 h -3.733 v 2.674 h 3.733 c 1.092,0 2.021,-0.101 2.787,-0.303 C 1.231,6.986 1.857,6.68 2.346,6.268 2.833,5.855 3.19,5.334 3.418,4.704 3.645,4.073 3.758,3.321 3.758,2.447 v -3.33 c 0,-0.992 -0.097,-1.825 -0.29,-2.496 C 3.274,-4.052 2.938,-4.599 2.459,-5.019 1.98,-5.439 1.341,-5.738 0.542,-5.915 -0.257,-6.091 -1.261,-6.179 -2.472,-6.179 Z"
             style="fill:#ffffff;fill-opacity:1;fill-rule:nonzero;stroke:none"
             id="path234" /></g><g
           id="g236"
           transform="translate(568.1162,22.8044)"
           style="fill:#ffffff"><path
             d="m 0,0 v 8.222 c 0,0.858 -0.164,1.442 -0.491,1.753 -0.328,0.311 -0.854,0.467 -1.576,0.467 h -2.448 c -0.554,0 -1.012,-0.038 -1.374,-0.114 C -6.251,10.252 -6.536,10.126 -6.746,9.95 -6.957,9.773 -7.104,9.546 -7.187,9.269 -7.272,8.992 -7.313,8.643 -7.313,8.222 V 0 h -3.305 v 8.222 c 0,0.421 -0.038,0.77 -0.113,1.047 -0.076,0.277 -0.219,0.504 -0.429,0.681 -0.211,0.176 -0.501,0.302 -0.87,0.378 -0.37,0.076 -0.841,0.114 -1.412,0.114 h -2.397 c -0.757,0 -1.291,-0.156 -1.601,-0.467 -0.312,-0.311 -0.467,-0.895 -0.467,-1.753 V 0 h -3.657 v 8.777 c 0,0.841 0.084,1.568 0.252,2.182 0.167,0.613 0.446,1.122 0.833,1.526 0.386,0.403 0.89,0.702 1.512,0.895 0.622,0.193 1.388,0.29 2.296,0.29 h 3.304 c 0.689,0 1.282,-0.05 1.778,-0.151 0.496,-0.101 0.916,-0.248 1.261,-0.441 0.345,-0.194 0.622,-0.442 0.833,-0.745 0.21,-0.302 0.382,-0.655 0.516,-1.059 0.236,0.807 0.685,1.408 1.35,1.804 0.664,0.394 1.668,0.592 3.014,0.592 h 3.405 c 0.907,0 1.673,-0.097 2.295,-0.29 C 1.707,13.187 2.211,12.888 2.599,12.485 2.984,12.081 3.263,11.572 3.431,10.959 3.599,10.345 3.683,9.618 3.683,8.777 V 0 Z"
             style="fill:#ffffff;fill-opacity:1;fill-rule:nonzero;stroke:none"
             id="path238" /></g><g
           id="g240"
           transform="translate(50.8154,30.738)"
           style="fill:#ffffff"><path
             d="M 0,0 C 1.306,0.001 2.364,-1.056 2.364,-2.361 2.367,-3.666 1.31,-4.726 0.005,-4.727 c -1.306,0 -2.364,1.057 -2.366,2.362 C -2.362,-1.06 -1.305,-0.001 0,0"
             style="fill:#ffffff;fill-opacity:1;fill-rule:nonzero;stroke:none"
             id="path242" /></g><g
           id="g244"
           transform="translate(59.6826,22.8249)"
           style="fill:#ffffff"><path
             d="M 0,0 4.658,0.004 -5.784,16.667 c -0.207,0.348 -0.442,0.651 -0.705,0.916 -0.266,0.264 -0.583,0.476 -0.954,0.625 -0.371,0.15 -0.826,0.225 -1.358,0.228 -0.544,-0.005 -1.002,-0.081 -1.376,-0.23 -0.375,-0.15 -0.697,-0.362 -0.962,-0.628 -0.263,-0.265 -0.498,-0.569 -0.705,-0.918 l -10.462,-16.681 4.63,0.004 c 3.089,5.009 5.728,9.362 8.799,14.378 C -5.381,8.673 -3.505,5.549 0,0"
             style="fill:#ffffff;fill-opacity:1;fill-rule:nonzero;stroke:none"
             id="path246" /></g></g></g></g></svg>
